<svg xmlns="http://www.w3.org/2000/svg" width="45" height="45" viewBox="0 0 400 465.672">
  <g stroke="#000" fill-rule="evenodd">
    <path d="M242.715 40.626c-19.375 2.936-37.532 10.263-55.88 22.549-7.683 5.144-9.079 5.491-14.005 3.475-8.522-3.486-16.781-2.04-23.83 4.171-3.011 2.652-5.525 3.795-9.6 4.365-17.811 2.49-49.471 16.293-69.158 30.153-1.343.945-4.062 2.855-6.042 4.244-24.708 17.331-30.732 31.887-21.371 51.647 2.401 5.067 2.5 5.404 2.756 9.313.69 10.576 7.776 11.229 15.253 1.407 5.638-7.406 5.391-12.165-.788-15.199-5.772-2.834-7.035-4.978-7.044-11.958-.007-5.437.895-7.803 4.728-12.393 11.621-13.918 50.09-36.087 73.266-42.221 8.853-2.343 10.268-1.946 13.017 3.655 2.542 5.181 6.099 8.785 11.072 11.22 5.56 2.723 6.188 4.266 4.536 11.153-6.397 26.682-33.635 72.494-46.954 78.974-9.649 4.694-19.884 1.414-22.591-7.239-3.137-10.029-11.339-7.778-18.341 5.033-3.216 5.882-.558 10.143 6.638 10.642 3.908.271 4.114.336 9.111 2.879 16.227 8.257 27.668 6.707 40.874-5.539 5.319-4.932 18.177-22.786 24.069-33.42a413 413 0 0 1 4.262-7.47c7.764-13.221 17.259-38.331 18.541-49.038.653-5.451 1.258-6.941 4.173-10.279 4.587-5.255 6.575-10.223 6.587-16.463.012-6.433 1.689-7.822 20.72-17.178 19.492-9.582 39.981-14.586 54.614-13.341 1.8.153 5.327.449 7.84.657 31.259 2.586 61.718 28.455 71.253 60.514 3.906 13.134 5.146 32.102 2.829 43.261-5.543 26.689-17.957 44.433-40.519 57.915-10.609 6.339-10.621 12.066-.038 18.376 14.169 8.447 25.897 20.75 32.707 34.308 14.431 28.734 11.261 66.959-7.683 92.658-3.85 5.222-9.13 11.323-11.376 13.143a478 478 0 0 0-4.922 4.056c-13.682 11.456-40.432 20.104-56.819 18.369-1.32-.139-4.347-.429-6.728-.644-22.346-2.012-48.566-13.961-76.244-34.745-13.07-9.815-12.766-9.008-6.517-17.299 10.014-13.284 10.387-25.256 1.075-34.477-8.54-8.456-18.299-8.851-29.548-1.196-4.897 3.332-5.826 3.327-10.627-.056-13.095-9.228-27.312-6.056-34.025 7.592-6.848 13.921.841 27.184 31.614 54.538 7.845 6.973 7.673 6.991 17.568-1.865 7.275-6.511 8.377-6.81 12.717-3.45 53.998 41.813 94.751 54 135.715 40.586 29.249-9.578 52.933-33.523 63.229-63.926 4.599-13.583 7.237-33.143 5.567-41.283-.203-.99-.561-3.899-.796-6.465-2.045-22.353-17.58-49.799-36.246-64.033-5.465-4.168-4.946-6.217 3.246-12.802 17.101-13.746 31.217-41.066 33.111-64.084 2.296-27.917-4.294-51.797-20.428-74.016-20.916-28.806-58.543-44.233-94.568-38.774m-77.027 36.992c5.595 1.554 7.238 8.761 2.97 13.029-4.394 4.394-10.817 2.859-12.517-2.992-1.87-6.433 3.227-11.792 9.547-10.037m-49.996 235.448c2.443.953 5.163 2.82 9.472 6.499 5.937 5.072 6.568 5.062 12.631-.191 9.653-8.363 15.895-9.221 22.08-3.035 8.548 8.547 3.9 19.022-17.275 38.935-11.573 10.883-10.855 10.835-21.004 1.404-21.519-19.998-26.768-30.141-20.102-38.845 3.605-4.706 9.381-6.646 14.198-4.767" stroke="none" stroke-width="" fill="#000"/>
    <path d="M0 232.8v232.8h400V0H0v232.8M270.554 40.588c12.417 1.755 21.531 4.483 32.081 9.605 25.571 12.413 45.304 37.791 52.735 67.82 2.619 10.584 3.405 22.47 2.341 35.403-1.894 23.018-16.01 50.338-33.111 64.084-8.192 6.585-8.711 8.634-3.246 12.802 18.666 14.234 34.201 41.68 36.246 64.033.235 2.566.593 5.475.796 6.465 1.67 8.14-.968 27.7-5.567 41.283-15.782 46.602-61.515 75.104-109.029 67.949-28.962-4.362-53.946-16.757-89.915-44.609-4.34-3.36-5.442-3.061-12.717 3.45-9.895 8.856-9.723 8.838-17.568 1.865-30.773-27.354-38.462-40.617-31.614-54.538 6.713-13.648 20.93-16.82 34.025-7.592 4.801 3.383 5.73 3.388 10.627.056 11.249-7.655 21.008-7.26 29.548 1.196 9.312 9.221 8.939 21.193-1.075 34.477-6.249 8.291-6.553 7.484 6.517 17.299 27.678 20.784 53.898 32.733 76.244 34.745 2.381.215 5.408.505 6.728.644 16.387 1.735 43.137-6.913 56.819-18.369a478 478 0 0 1 4.922-4.056c1.357-1.1 4.131-4.044 6.163-6.543 16.188-19.897 22.55-38.66 21.736-64.097-.934-29.198-15.861-54.155-41.547-69.469-10.583-6.31-10.571-12.037.038-18.376 19.701-11.773 33.649-29.691 38.634-49.63 5.174-20.699 3.733-41.663-4.143-60.275-11.873-28.06-40.003-49.464-68.054-51.785-2.513-.208-6.04-.504-7.84-.657-14.633-1.245-35.122 3.759-54.614 13.341-19.031 9.356-20.708 10.745-20.72 17.178-.012 6.24-2 11.208-6.587 16.463-2.915 3.338-3.52 4.828-4.173 10.279-1.282 10.707-10.777 35.817-18.541 49.038a413 413 0 0 0-4.262 7.47c-5.892 10.634-18.75 28.488-24.069 33.42-13.206 12.246-24.647 13.796-40.874 5.539-4.997-2.543-5.203-2.608-9.111-2.879-7.196-.499-9.854-4.76-6.638-10.642 7.002-12.811 15.204-15.062 18.341-5.033 2.707 8.653 12.942 11.933 22.591 7.239 13.319-6.48 40.557-52.292 46.954-78.974 1.652-6.887 1.024-8.43-4.536-11.153-4.973-2.435-8.53-6.039-11.072-11.22-2.749-5.601-4.164-5.998-13.017-3.655-16.049 4.248-42.428 17.561-59.4 29.977-13.958 10.212-18.605 16.369-18.594 24.637.009 6.98 1.272 9.124 7.044 11.958 6.179 3.034 6.426 7.793.788 15.199-7.477 9.822-14.563 9.169-15.253-1.407-.256-3.909-.355-4.246-2.756-9.313-9.361-19.76-3.337-34.316 21.371-51.647 1.98-1.389 4.699-3.299 6.042-4.244 19.687-13.86 51.347-27.663 69.158-30.153 4.075-.57 6.589-1.713 9.6-4.365 7.049-6.211 15.308-7.657 23.83-4.171 4.926 2.016 6.322 1.669 14.005-3.475 27.857-18.654 56.626-26.416 83.719-22.587m-109.48 37.019c-4.136 1.241-6.245 5.537-4.933 10.048 1.7 5.851 8.123 7.386 12.517 2.992 5.847-5.847.289-15.403-7.584-13.04m-52.931 235.229c-3.442.998-7.655 5.3-8.749 8.937-2.469 8.2 3.408 17.44 22.202 34.905 10.149 9.431 9.431 9.479 21.004-1.404 21.175-19.913 25.823-30.388 17.275-38.935-6.185-6.186-12.427-5.328-22.08 3.035-6.063 5.253-6.694 5.263-12.631.191-7.755-6.623-11.829-8.233-17.021-6.729" stroke="1" stroke-width="8" fill="#fff"/>
  </g>
</svg>
