<svg xmlns="http://www.w3.org/2000/svg" width="40.809" height="45" viewBox="0 0 40.809 45"><path d="m31.324 1.691 0.176 0.064C33.011 2.315 34.264 3.077 35.441 4.191l0.194 0.18C37.336 5.999 38.403 8.178 38.971 10.441l0.04 0.158c0.378 1.592 0.376 3.63 -0.04 5.21l-0.043 0.172c-0.45 1.755 -1.256 3.46 -2.457 4.828l-0.147 0.174c-0.475 0.548 -1.008 1.031 -1.544 1.517 0.118 0.315 0.358 0.504 0.602 0.722q0.131 0.119 0.262 0.239 0.193 0.175 0.388 0.349c1.936 1.817 3.134 4.82 3.243 7.442 0.064 2.182 -0.323 4.195 -1.259 6.175l-0.069 0.147C36.554 40.463 34.015 42.538 31.03 43.603a10.515 10.515 0 0 1 -1.029 0.294l-0.277 0.066c-0.729 0.156 -1.457 0.176 -2.2 0.177l-0.286 0.001c-0.66 -0.005 -1.292 -0.068 -1.943 -0.171l-0.186 -0.029C21.944 43.411 19.074 41.76 16.544 39.853l-0.335 -0.25q-0.305 -0.228 -0.61 -0.458c-0.267 -0.234 -0.267 -0.234 -0.59 -0.312 -0.214 0.088 -0.362 0.218 -0.539 0.368l-0.216 0.18a72.427 72.427 0 0 0 -0.394 0.334c-0.324 0.268 -0.556 0.449 -0.995 0.433 -0.993 -0.267 -1.854 -1.366 -2.574 -2.059l-0.124 -0.119c-1.086 -1.045 -2.35 -2.393 -2.399 -3.985 0.019 -0.893 0.397 -1.627 0.979 -2.293 0.584 -0.464 1.287 -0.796 2.049 -0.755 0.652 0.083 1.168 0.281 1.715 0.637 0.192 0.121 0.317 0.193 0.547 0.185 0.189 -0.073 0.342 -0.161 0.51 -0.274 0.723 -0.445 1.435 -0.633 2.276 -0.499C16.687 31.188 17.33 31.794 17.794 32.5c0.424 0.766 0.449 1.508 0.223 2.342 -0.217 0.658 -0.564 1.209 -0.985 1.755 -0.132 0.166 -0.132 0.166 -0.194 0.388l0.121 0.053c0.219 0.119 0.401 0.265 0.596 0.42 0.917 0.716 1.888 1.357 2.886 1.953l0.153 0.092c2.569 1.519 5.759 2.611 8.762 1.884A14.118 14.118 0 0 0 30.074 41.177l0.161 -0.051c1.122 -0.368 2.164 -0.883 3.075 -1.64l0.194 -0.161c1.87 -1.612 2.944 -4.006 3.144 -6.437 0.184 -2.593 -0.452 -4.971 -2.145 -6.967 -0.686 -0.772 -1.455 -1.385 -2.329 -1.927 -0.475 -0.295 -0.843 -0.6 -1.071 -1.126 -0.044 -0.444 0.007 -0.748 0.294 -1.103 0.382 -0.408 0.83 -0.704 1.301 -0.998 1.873 -1.18 3.202 -3.064 3.718 -5.211 0.443 -1.974 0.378 -3.941 -0.313 -5.85l-0.096 -0.277C35.187 7.213 33.37 5.357 31.25 4.338c-1.851 -0.831 -4.215 -1.066 -6.176 -0.515q-0.173 0.044 -0.347 0.087C23.026 4.351 21.208 5.062 19.779 6.103c-0.105 0.209 -0.099 0.41 -0.119 0.643 -0.083 0.731 -0.373 1.343 -0.843 1.912 -0.259 0.339 -0.319 0.67 -0.389 1.084 -0.626 3.211 -2.247 6.266 -4.202 8.863a45.368 45.368 0 0 0 -0.306 0.413C13.074 20.16 11.975 21.228 10.515 21.471c-0.921 0.077 -1.735 -0.185 -2.567 -0.551 -0.397 -0.173 -0.786 -0.276 -1.209 -0.371C6.236 20.437 5.962 20.271 5.662 19.853c-0.139 -0.278 -0.106 -0.549 -0.023 -0.838C5.802 18.575 6.018 18.221 6.324 17.868l0.122 -0.143c0.286 -0.311 0.56 -0.513 0.981 -0.592 0.402 0.007 0.646 0.113 0.956 0.368 0.182 0.236 0.31 0.475 0.432 0.744 0.15 0.299 0.281 0.444 0.597 0.579 0.618 0.094 1.104 -0.016 1.618 -0.368 2.305 -1.812 4.07 -5.789 4.706 -8.529l0.055 -0.23c-0.034 -0.219 -0.034 -0.219 -0.201 -0.321a17.059 17.059 0 0 0 -0.394 -0.224C14.531 8.785 14.206 8.207 13.824 7.574c-2.849 0.239 -6.218 2.303 -8.309 4.191l-0.168 0.15c-0.511 0.48 -0.727 0.849 -0.751 1.559 -0.006 0.361 -0.006 0.361 0.168 0.663A3.603 3.603 0 0 0 5.221 14.444c0.31 0.192 0.533 0.351 0.632 0.72 0.094 0.591 -0.105 0.967 -0.402 1.463 -0.752 1.017 -0.752 1.017 -1.371 1.126 -0.305 0.014 -0.515 -0.018 -0.798 -0.138 -0.365 -0.357 -0.482 -0.757 -0.547 -1.255 -0.056 -0.403 -0.184 -0.741 -0.345 -1.112 -0.447 -1.041 -0.587 -2.099 -0.184 -3.189 0.295 -0.627 0.696 -1.124 1.176 -1.618l0.148 -0.162C4.733 9.003 6.398 8.015 7.941 7.206l0.143 -0.075A33.015 33.015 0 0 1 9.118 6.618l0.151 -0.072c1.367 -0.646 2.775 -1.177 4.265 -1.451 0.576 -0.115 0.991 -0.342 1.466 -0.683 0.666 -0.469 1.329 -0.648 2.146 -0.554 0.248 0.047 0.474 0.12 0.705 0.221 0.322 0.076 0.563 0.027 0.849 -0.126 0.197 -0.123 0.39 -0.252 0.583 -0.382C20.93 2.493 22.646 1.722 24.559 1.25l0.156 -0.04C26.814 0.695 29.319 0.945 31.324 1.691M16.301 6.296c-0.148 0.17 -0.148 0.17 -0.115 0.404 0.048 0.219 0.048 0.219 0.211 0.358 0.178 0.043 0.178 0.043 0.368 0 0.183 -0.158 0.183 -0.158 0.294 -0.368 -0.006 -0.192 -0.056 -0.27 -0.17 -0.423 -0.219 -0.162 -0.378 -0.121 -0.588 0.028m-6.434 27.119c-0.184 0.398 -0.167 0.678 -0.032 1.086 0.477 1.067 1.543 1.975 2.376 2.769l0.138 0.134C12.667 37.71 12.667 37.71 13.088 37.794c0.134 -0.066 0.134 -0.066 0.248 -0.188l0.151 -0.144L13.677 37.28a71.103 71.103 0 0 1 0.26 -0.238c0.759 -0.693 1.46 -1.394 2.019 -2.262l0.143 -0.221c0.115 -0.324 0.136 -0.617 0.078 -0.956 -0.143 -0.299 -0.314 -0.479 -0.588 -0.662 -0.562 -0.057 -0.915 0.09 -1.356 0.434L14.044 33.53c-0.594 0.485 -0.594 0.485 -0.956 0.588 -0.501 -0.073 -0.806 -0.274 -1.195 -0.588q-0.152 -0.12 -0.304 -0.239l-0.133 -0.107c-0.568 -0.41 -1.163 -0.341 -1.589 0.231"/></svg>