<svg viewBox="1.2529 0.9387 38.0361 43.2023" width="38.0361" height="43.2023" xmlns="http://www.w3.org/2000/svg">
  <path d="M 31.324 1.691 L 31.5 1.755 C 33.011 2.315 34.264 3.077 35.441 4.191 L 35.635 4.371 C 37.336 5.999 38.403 8.178 38.971 10.441 L 39.011 10.599 C 39.389 12.191 39.387 14.229 38.971 15.809 L 38.928 15.981 C 38.478 17.736 37.672 19.441 36.471 20.809 L 36.324 20.983 C 35.849 21.531 35.316 22.014 34.78 22.5 C 34.898 22.815 35.138 23.004 35.382 23.222 C 35.469 23.301 35.557 23.381 35.644 23.461 C 35.773 23.578 35.902 23.694 36.032 23.81 C 37.968 25.627 39.166 28.63 39.275 31.252 C 39.339 33.434 38.952 35.447 38.016 37.427 L 37.947 37.574 C 36.554 40.463 34.015 42.538 31.03 43.603 C 30.692 43.718 30.349 43.817 30.001 43.897 L 29.724 43.963 C 28.995 44.119 28.267 44.139 27.524 44.14 L 27.238 44.141 C 26.578 44.136 25.946 44.073 25.295 43.97 L 25.109 43.941 C 21.944 43.411 19.074 41.76 16.544 39.853 L 16.209 39.603 C 16.006 39.451 15.802 39.298 15.599 39.145 C 15.332 38.911 15.332 38.911 15.009 38.833 C 14.795 38.921 14.647 39.051 14.47 39.201 L 14.254 39.381 C 14.122 39.492 13.991 39.603 13.86 39.715 C 13.536 39.983 13.304 40.164 12.865 40.148 C 11.872 39.881 11.011 38.782 10.291 38.089 L 10.167 37.97 C 9.081 36.925 7.817 35.577 7.768 33.985 C 7.787 33.092 8.165 32.358 8.747 31.692 C 9.331 31.228 10.034 30.896 10.796 30.937 C 11.448 31.02 11.964 31.218 12.511 31.574 C 12.703 31.695 12.828 31.767 13.058 31.759 C 13.247 31.686 13.4 31.598 13.568 31.485 C 14.291 31.04 15.003 30.852 15.844 30.986 C 16.687 31.188 17.33 31.794 17.794 32.5 C 18.218 33.266 18.243 34.008 18.017 34.842 C 17.8 35.5 17.453 36.051 17.032 36.597 C 16.9 36.763 16.9 36.763 16.838 36.985 L 16.959 37.038 C 17.178 37.157 17.36 37.303 17.555 37.458 C 18.472 38.174 19.443 38.815 20.441 39.411 L 20.594 39.503 C 23.163 41.022 26.353 42.114 29.356 41.387 C 29.597 41.323 29.837 41.253 30.074 41.177 L 30.235 41.126 C 31.357 40.758 32.399 40.243 33.31 39.486 L 33.504 39.325 C 35.374 37.713 36.448 35.319 36.648 32.888 C 36.832 30.295 36.196 27.917 34.503 25.921 C 33.817 25.149 33.048 24.536 32.174 23.994 C 31.699 23.699 31.331 23.394 31.103 22.868 C 31.059 22.424 31.11 22.12 31.397 21.765 C 31.779 21.357 32.227 21.061 32.698 20.767 C 34.571 19.587 35.9 17.703 36.416 15.556 C 36.859 13.582 36.794 11.615 36.103 9.706 L 36.007 9.429 C 35.187 7.213 33.37 5.357 31.25 4.338 C 29.399 3.507 27.035 3.272 25.074 3.823 C 24.959 3.852 24.843 3.881 24.727 3.91 C 23.026 4.351 21.208 5.062 19.779 6.103 C 19.674 6.312 19.68 6.513 19.66 6.746 C 19.577 7.477 19.287 8.089 18.817 8.658 C 18.558 8.997 18.473 9.325 18.428 9.742 C 18.168 12.148 18.107 10.486 17.845 14.117 C 17.588 17.684 16.727 20.514 16.626 20.652 C 15.78 21.794 14.681 22.862 13.221 23.105 C 12.3 23.182 11.486 22.92 10.654 22.554 C 10.257 22.381 9.868 22.278 9.445 22.183 C 8.942 22.071 8.668 21.905 8.368 21.487 C 8.229 21.209 8.262 20.938 8.345 20.649 C 8.508 20.209 8.724 19.855 9.03 19.502 L 9.152 19.359 C 9.438 19.048 9.712 18.846 10.133 18.767 C 10.535 18.774 10.779 18.88 11.089 19.135 C 11.271 19.371 11.399 19.61 11.521 19.879 C 11.671 20.178 11.802 20.323 12.118 20.458 C 12.736 20.552 13.222 20.442 13.736 20.09 C 16.041 18.278 15.1 12.667 15.736 9.927 L 15.791 9.697 C 15.757 9.478 15.757 9.478 15.59 9.376 C 15.46 9.3 15.328 9.225 15.196 9.152 C 14.531 8.785 14.206 8.207 13.824 7.574 C 10.975 7.813 6.891 8.907 4.8 10.795 L 4.632 10.945 C 4.121 11.425 3.905 11.794 3.881 12.504 C 3.875 12.865 3.875 12.865 4.049 13.167 C 4.193 13.281 4.346 13.383 4.506 13.474 C 4.816 13.666 5.039 13.825 5.138 14.194 C 5.232 14.785 5.033 15.161 4.736 15.657 C 3.984 16.674 3.984 16.674 3.365 16.783 C 3.06 16.797 2.85 16.765 2.567 16.645 C 2.202 16.288 2.085 15.888 2.02 15.39 C 1.964 14.987 1.836 14.649 1.675 14.278 C 1.228 13.237 1.088 12.179 1.491 11.089 C 1.786 10.462 2.187 9.965 2.667 9.471 L 2.815 9.309 C 4.018 8.033 5.58 7.639 7.123 6.83 L 7.143 6.878 C 7.485 6.701 8.297 6.48 8.817 6.34 L 11.463 5.602 C 12.672 5.439 12.044 5.369 13.534 5.095 C 14.11 4.98 14.525 4.753 15 4.412 C 15.666 3.943 16.329 3.764 17.146 3.858 C 17.394 3.905 17.62 3.978 17.851 4.079 C 18.173 4.155 18.414 4.106 18.7 3.953 C 18.897 3.83 19.09 3.701 19.283 3.571 C 20.93 2.493 22.646 1.722 24.559 1.25 L 24.715 1.21 C 26.814 0.695 29.319 0.945 31.324 1.691 M 16.301 6.296 C 16.153 6.466 16.153 6.466 16.186 6.7 C 16.234 6.919 16.234 6.919 16.397 7.058 C 16.575 7.101 16.575 7.101 16.765 7.058 C 16.948 6.9 16.948 6.9 17.059 6.69 C 17.053 6.498 17.003 6.42 16.889 6.267 C 16.67 6.105 16.511 6.146 16.301 6.295 M 9.867 33.414 C 9.683 33.812 9.7 34.092 9.835 34.5 C 10.312 35.567 11.378 36.475 12.211 37.269 L 12.349 37.403 C 12.667 37.71 12.667 37.71 13.088 37.794 C 13.222 37.728 13.222 37.728 13.336 37.606 L 13.487 37.462 L 13.677 37.28 C 13.763 37.2 13.85 37.121 13.937 37.042 C 14.696 36.349 15.397 35.648 15.956 34.78 L 16.099 34.559 C 16.214 34.235 16.235 33.942 16.177 33.603 C 16.034 33.304 15.863 33.124 15.589 32.941 C 15.027 32.884 14.674 33.031 14.233 33.375 L 14.044 33.53 C 13.45 34.015 13.45 34.015 13.088 34.118 C 12.587 34.045 12.282 33.844 11.893 33.53 C 11.792 33.45 11.69 33.37 11.589 33.291 L 11.456 33.184 C 10.888 32.774 10.293 32.843 9.867 33.415"/>
</svg>
