<svg xmlns="http://www.w3.org/2000/svg" width="555" height="612">
  <path d="m426 23 2.39.875C448.942 31.49 465.99 41.845 482 57l2.645 2.45C507.774 81.585 522.275 111.222 530 142l.543 2.148c5.144 21.657 5.117 49.37-.543 70.852l-.586 2.335c-6.116 23.87-17.08 47.06-33.414 65.665l-2 2.363c-6.462 7.448-13.71 14.02-21 20.637 1.603 4.279 4.864 6.858 8.188 9.813q1.784 1.623 3.566 3.25 2.629 2.384 5.273 4.75c26.326 24.716 42.62 65.55 44.098 101.214.87 29.676-4.396 57.052-17.125 83.973l-.944 2.001C497.136 550.293 462.606 578.518 422 593a143 143 0 0 1-14 4l-3.77.902c-9.91 2.121-19.814 2.388-29.918 2.41l-3.884.017c-8.973-.067-17.57-.928-26.428-2.329l-2.524-.394C298.434 590.39 259.399 567.938 225 542l-4.55-3.402q-4.154-3.107-8.29-6.235c-3.635-3.177-3.635-3.177-8.023-4.246-2.91 1.203-4.929 2.968-7.324 5.008l-2.934 2.445a985 985 0 0 0-5.352 4.547c-4.4 3.638-7.555 6.104-13.527 5.883-13.508-3.637-25.213-18.583-35-28l-1.691-1.62c-14.768-14.206-31.96-32.54-32.621-54.192.256-12.138 5.396-22.123 13.312-31.188 7.939-6.304 17.503-10.82 27.863-10.273 8.871 1.135 15.89 3.815 23.329 8.668 2.606 1.643 4.31 2.622 7.433 2.515 2.574-.986 4.646-2.19 6.938-3.723 9.83-6.052 19.513-8.61 30.96-6.785C226.947 424.16 235.685 432.394 242 442c5.77 10.416 6.103 20.51 3.035 31.855-2.945 8.947-7.677 16.446-13.398 23.868-1.797 2.262-1.797 2.262-2.637 5.277l1.64.723c2.978 1.612 5.456 3.61 8.11 5.714 12.466 9.735 25.68 18.45 39.25 26.563l2.083 1.246c34.943 20.652 78.323 35.515 119.167 25.629A192 192 0 0 0 409 560l2.184-.697c15.258-5.01 29.434-12.005 41.816-22.303l2.645-2.184c25.436-21.92 40.043-54.48 42.761-87.546 2.507-35.262-6.149-67.603-29.172-94.754-9.323-10.498-19.783-18.832-31.671-26.204-6.457-4.017-11.47-8.166-14.563-15.312-.594-6.044.092-10.166 4-15 5.194-5.548 11.287-9.573 17.691-13.572 25.472-16.047 43.544-41.665 50.559-70.865 6.021-26.851 5.136-53.601-4.25-79.563l-1.305-3.762C478.546 98.098 453.833 72.858 425 59c-25.179-11.295-57.33-14.494-84-7q-2.359.593-4.719 1.184C313.153 59.17 288.431 68.84 269 83c-1.423 2.847-1.342 5.581-1.625 8.75-1.131 9.938-5.076 18.269-11.46 26.004-3.52 4.61-4.343 9.116-5.29 14.746-8.51 43.668-30.56 85.213-57.145 120.532a617 617 0 0 0-4.164 5.616C177.806 274.171 162.864 288.694 143 292c-12.523 1.044-23.6-2.51-34.913-7.487-5.402-2.358-10.687-3.752-16.442-5.04C84.807 277.942 81.08 275.685 77 270c-1.888-3.775-1.437-7.463-.316-11.402C78.902 252.624 81.84 247.807 86 243l1.66-1.945c3.884-4.229 7.62-6.981 13.34-8.055 5.47.094 8.79 1.538 13 5 2.479 3.208 4.212 6.459 5.875 10.125 2.04 4.064 3.824 6.032 8.125 7.875 8.408 1.276 15.01-.213 22-5 31.354-24.64 55.352-78.734 64-116l.75-3.125c-.459-2.979-.459-2.979-2.738-4.367a232 232 0 0 0-5.356-3.04C197.622 119.474 193.202 111.613 188 103c-38.742 3.245-84.571 31.314-113 57l-2.29 2.043c-6.947 6.531-9.89 11.542-10.21 21.207-.088 4.91-.088 4.91 2.281 9.02A49 49 0 0 0 71 196.437c4.217 2.608 7.25 4.773 8.598 9.786 1.279 8.034-1.426 13.157-5.473 19.902-10.225 13.834-10.225 13.834-18.648 15.32-4.152.187-7.007-.245-10.852-1.882-4.967-4.85-6.554-10.293-7.437-17.063-.765-5.486-2.505-10.083-4.688-15.125-6.077-14.153-7.977-28.541-2.5-43.375 4.01-8.53 9.464-15.286 16-22l2.012-2.2C64.374 122.443 87.01 109.002 108 98l1.946-1.021A449 449 0 0 1 124 90l2.051-.98c18.586-8.78 37.746-16.01 58.008-19.73 7.83-1.563 13.482-4.65 19.941-9.29 9.064-6.375 18.068-8.808 29.18-7.531 3.377.636 6.442 1.638 9.59 3.008 4.377 1.027 7.658.364 11.548-1.716 2.684-1.678 5.31-3.425 7.932-5.199C284.64 33.91 307.987 23.415 334 17l2.125-.543C364.666 9.452 398.73 12.853 426 23M221.688 85.625c-2.01 2.315-2.01 2.315-1.563 5.5.658 2.972.658 2.972 2.875 4.875 2.414.584 2.414.584 5 0 2.484-2.147 2.484-2.147 4-5-.077-2.612-.757-3.676-2.312-5.75-2.972-2.201-5.135-1.639-8 .375m-87.5 368.813c-2.509 5.412-2.276 9.221-.434 14.773 6.483 14.51 20.99 26.855 32.309 37.664l1.875 1.822C172.27 512.85 172.27 512.85 178 514c1.817-.9 1.817-.9 3.375-2.562l2.059-1.954L186 507a967 967 0 0 1 3.535-3.234c10.316-9.428 19.85-18.96 27.465-30.766l1.938-3c1.558-4.4 1.855-8.392 1.062-13-1.945-4.062-4.267-6.511-8-9-7.642-.777-12.439 1.224-18.445 5.906L191 456c-8.085 6.602-8.085 6.602-13 8-6.82-.987-10.957-3.733-16.25-8q-2.067-1.63-4.14-3.25l-1.814-1.453c-7.728-5.58-15.821-4.642-21.608 3.14"/>
</svg>
