<?xml version="1.0" standalone="no"?>
<!DOCTYPE svg PUBLIC "-//W3C//DTD SVG 20010904//EN"
 "http://www.w3.org/TR/2001/REC-SVG-20010904/DTD/svg10.dtd">
<svg version="1.0" xmlns="http://www.w3.org/2000/svg"
 width="60.000000pt" height="76.000000pt" viewBox="0 0 60.000000 76.000000"
 preserveAspectRatio="xMidYMid meet">
<metadata>
Created by potrace 1.10, written by Peter Selinger 2001-2011
</metadata>
<g transform="translate(0.000000,76.000000) scale(0.100000,-0.100000)" stroke="none">
<path d="M80 385 l0 -335 193 0 192 0 53 94 c28 52 52 97 52 101 0 3 -20 41
-45 84 l-45 78 41 70 40 71 -48 86 -48 86 -192 0 -193 0 0 -335z m392 253 c58
-91 61 -73 -63 -291 -86 -152 -116 -197 -131 -197 -26 0 -29 -8 97 210 l107
185 -28 53 -28 52 -138 0 -138 0 0 -145 c0 -136 -10 -195 -32 -195 -8 0 -12
363 -4 371 2 2 78 3 168 2 l163 -2 27 -43z m-187 -28 c3 -5 -5 -26 -17 -47
-13 -21 -29 -49 -36 -63 -7 -14 -22 -36 -32 -50 l-20 -25 0 91 c0 50 3 94 7
97 10 11 91 8 98 -3z m85 5 c0 -3 -49 -91 -110 -196 -103 -178 -110 -194 -110
-245 l0 -54 138 0 137 0 36 62 36 62 -28 47 c-26 41 -31 79 -10 79 3 0 22 -29
42 -64 l37 -64 -47 -79 -46 -78 -167 -3 -168 -2 0 76 0 76 111 194 c83 147
115 194 130 194 10 0 19 -2 19 -5z m65 -44 c13 -26 9 -35 -86 -201 -55 -96
-102 -185 -105 -198 -5 -18 -12 -22 -33 -20 -21 2 -27 9 -29 36 -4 36 -2 39
99 212 40 69 82 144 93 166 23 46 39 47 61 5z m16 -305 c20 -43 -31 -116 -82
-116 -41 0 -38 13 18 103 27 43 49 47 64 13z"/>
</g>
</svg>
