<?xml version="1.0" encoding="utf-8"?>
<svg viewBox="0.9999 0.9387 38.0003 43.2023" width="45" height="45" xmlns="http://www.w3.org/2000/svg">
  <path d="M 31.043 1.691 L 31.219 1.755 C 32.728 2.315 33.98 3.077 35.155 4.191 L 35.349 4.371 C 37.049 5.999 38.115 8.178 38.683 10.441 L 38.723 10.599 C 39.1 12.191 39.098 14.229 38.683 15.809 L 38.64 15.981 C 38.19 17.736 37.385 19.441 36.184 20.809 L 36.038 20.983 C 35.564 21.531 35.031 22.014 34.496 22.5 C 34.614 22.815 34.853 23.004 35.097 23.222 C 35.184 23.301 35.271 23.381 35.359 23.461 C 35.488 23.578 35.616 23.694 35.746 23.81 C 37.68 25.627 38.877 28.63 38.987 31.252 C 39.05 33.434 38.663 35.447 37.729 37.427 L 37.66 37.574 C 36.268 40.463 33.731 42.538 30.749 43.603 C 30.411 43.718 30.068 43.817 29.721 43.897 L 29.445 43.963 C 28.716 44.119 27.989 44.139 27.246 44.14 L 26.961 44.141 C 26.301 44.136 25.67 44.073 25.019 43.97 L 24.834 43.941 C 21.671 43.411 18.805 41.76 16.277 39.853 L 15.942 39.603 C 15.739 39.451 14.049 37.977 13.846 37.824 C 15.146 35.442 15.642 35.854 15.579 36.076 C 15.919 36.248 17.092 37.303 17.287 37.458 C 18.202 38.174 19.173 38.815 20.17 39.411 L 20.323 39.503 C 22.889 41.022 26.076 42.114 29.076 41.387 C 29.317 41.323 29.557 41.253 29.793 41.177 L 29.954 41.126 C 31.076 40.758 32.116 40.243 33.026 39.486 L 33.22 39.325 C 35.089 37.713 36.162 35.319 36.362 32.888 C 36.546 30.295 35.911 27.917 34.219 25.921 C 33.533 25.149 32.765 24.536 31.892 23.994 C 31.418 23.699 31.049 23.394 30.821 22.868 C 30.778 22.424 30.829 22.12 31.116 21.765 C 31.498 21.357 31.945 21.061 32.415 20.767 C 34.286 19.587 35.614 17.703 36.13 15.556 C 36.572 13.582 36.508 11.615 35.817 9.706 L 35.722 9.429 C 34.902 7.213 33.087 5.357 30.969 4.338 C 29.119 3.507 26.757 3.272 24.799 3.823 C 24.684 3.852 24.568 3.881 24.452 3.91 C 22.753 4.351 20.936 5.062 19.508 6.103 C 19.404 6.312 19.41 6.513 19.389 6.746 C 19.306 7.477 19.017 8.089 18.547 8.658 C 18.289 8.997 18.229 9.328 18.159 9.742 C 17.533 12.953 17.838 10.486 17.576 14.117 C 17.32 17.684 16.459 20.514 16.359 20.652 C 15.513 21.794 14.415 22.862 12.956 23.105 C 12.037 23.182 11.223 22.92 10.392 22.554 C 9.995 22.381 9.607 22.278 9.185 22.183 C 8.682 22.071 8.408 21.905 8.108 21.487 C 7.97 21.209 8.003 20.938 8.086 20.649 C 8.248 20.209 8.464 19.855 8.77 19.502 L 8.891 19.359 C 9.177 19.048 9.451 18.846 9.872 18.767 C 10.273 18.774 10.517 18.88 10.826 19.135 C 11.009 19.371 11.136 19.61 11.258 19.879 C 11.408 20.178 11.539 20.323 11.854 20.458 C 12.472 20.552 12.957 20.442 13.471 20.09 C 15.774 18.278 14.834 12.667 15.469 9.927 L 15.524 9.697 C 15.491 9.478 15.491 9.478 15.323 9.376 C 15.194 9.3 15.062 9.225 14.93 9.152 C 14.265 8.785 13.941 8.207 13.56 7.574 C 10.712 7.813 6.633 8.907 4.544 10.795 L 4.376 10.945 C 3.866 11.425 3.649 11.794 3.626 12.504 C 3.619 12.865 3.619 12.865 3.794 13.167 C 3.938 13.281 4.09 13.383 4.25 13.474 C 4.559 13.666 4.782 13.825 4.881 14.194 C 4.975 14.785 4.777 15.161 4.479 15.657 C 3.728 16.674 3.728 16.674 3.11 16.783 C 2.805 16.797 2.595 16.765 2.312 16.645 C 1.948 16.288 1.831 15.888 1.766 15.39 C 1.71 14.987 1.583 14.649 1.422 14.278 C 0.975 13.237 0.835 12.179 1.238 11.089 C 1.533 10.462 1.933 9.965 2.413 9.471 L 2.561 9.309 C 3.762 8.033 5.323 7.639 6.865 6.83 L 6.884 6.878 C 7.226 6.701 8.038 6.48 8.557 6.34 L 11.201 5.602 C 12.408 5.439 11.78 5.369 13.269 5.095 C 13.845 4.98 14.259 4.753 14.734 4.412 C 15.399 3.943 16.062 3.764 16.878 3.858 C 17.126 3.905 17.352 3.978 17.583 4.079 C 17.904 4.155 18.145 4.106 18.43 3.953 C 18.627 3.83 18.82 3.701 19.013 3.571 C 20.659 2.493 22.373 1.722 24.284 1.25 L 24.44 1.21 C 26.537 0.695 29.039 0.945 31.043 1.691 M 16.033 6.296 C 15.886 6.466 15.886 6.466 15.919 6.7 C 15.967 6.919 15.967 6.919 16.13 7.058 C 16.307 7.101 16.307 7.101 16.497 7.058 C 16.68 6.9 16.68 6.9 16.792 6.69 C 16.785 6.498 16.735 6.42 16.621 6.267 C 16.403 6.105 16.244 6.146 16.033 6.295" style=""/>
  <path fill-rule="evenodd" d="M 10.551 27.854 C 8.894 26.201 6.21 26.202 4.554 27.858 C 2.897 29.514 2.897 32.201 4.554 33.858 L 11.304 40.608 L 18.054 33.858 C 19.711 32.201 19.711 29.514 18.054 27.858 C 16.398 26.202 13.715 26.201 12.057 27.854 L 11.304 28.608 L 10.551 27.854 Z M 11.304 37.779 L 16.64 32.443 C 17.516 31.567 17.516 30.148 16.64 29.272 C 15.764 28.396 14.344 28.396 13.468 29.272 L 11.304 31.436 L 9.14 29.272 C 8.264 28.396 6.844 28.396 5.968 29.272 C 5.093 30.148 5.093 31.567 5.968 32.443 L 11.304 37.779 Z"/>
</svg>