<svg width="30" height="24" viewBox="0 0 30 24" fill="none" xmlns="http://www.w3.org/2000/svg">
<path fill-rule="evenodd" clip-rule="evenodd" d="M29.7045 3.74837C25.2997 5.83081 23.0973 8.27764 23.0973 11.0889C24.9747 11.2972 26.5272 12.0347 27.7548 13.3015C28.9824 14.5683 29.5961 16.0347 29.5961 17.7007C29.5961 19.4707 29.0004 20.9631 27.809 22.1779C26.6175 23.3926 25.1192 24 23.3139 24C21.292 24 19.541 23.2104 18.0607 21.6312C16.5804 20.0521 15.8402 18.1345 15.8402 15.8785C15.8402 9.11059 19.7756 3.81781 27.6465 0L29.7045 3.74837ZM14.1597 3.74837C9.71884 5.83081 7.49842 8.27764 7.49842 11.0889C9.41198 11.2972 10.9825 12.0347 12.2101 13.3015C13.4376 14.5683 14.0514 16.0347 14.0514 17.7007C14.0514 19.4707 13.4467 20.9631 12.2372 22.1779C11.0276 23.3926 9.52029 24 7.71505 24C5.69317 24 3.95114 23.2104 2.48889 21.6312C1.02665 20.0521 0.295532 18.1345 0.295532 15.8785C0.295532 9.11059 4.21285 3.81781 12.0476 0L14.1597 3.74837Z" fill="#FFBA43"/>
</svg>
