<?xml version="1.0" encoding="utf-8"?>

<!-- Uploaded to: SVG Repo, www.svgrepo.com, Generator: SVG Repo Mixer Tools -->
<svg version="1.1" id="Icons" xmlns="http://www.w3.org/2000/svg" xmlns:xlink="http://www.w3.org/1999/xlink" 
	 viewBox="0 0 32 32" xml:space="preserve">
<style type="text/css">
	.st0{fill:none;stroke:#FFF;stroke-width:2;stroke-linecap:round;stroke-linejoin:round;stroke-miterlimit:10;}
</style>
<path class="st0" d="M8.4,17c0.7,0.6,1.6,1,2.6,1s1.9-0.4,2.6-1"/>
<path class="st0" d="M18.4,17c0.7,0.6,1.6,1,2.6,1s1.9-0.4,2.6-1"/>
<path class="st0" d="M16,20c-1.7,0-3,1.3-3,3h6C19,21.3,17.7,20,16,20z"/>
<path class="st0" d="M21,4c-1.5-0.6-3.2-1-5-1C8.8,3,3,8.8,3,16s5.8,13,13,13s13-5.8,13-13c0-1.4-0.2-2.7-0.6-4"/>
<polyline class="st0" points="20,9 23,9 20,12 23,12 "/>
<polyline class="st0" points="25,4 28.8,4 25.2,8 29,8 "/>
</svg>